<svg width="500" height="500" viewBox="0 0 500 500" fill="none" xmlns="http://www.w3.org/2000/svg">
<circle cx="250" cy="250" r="195" fill="#F8FAFF" stroke="#1C1B23" stroke-width="10"/>
<mask id="path-2-inside-1_85_65" fill="white">
<path d="M215 264H165V225H170V259H210V225H215V264Z"/>
</mask>
<path d="M215 264H165V225H170V259H210V225H215V264Z" fill="#1C1B23"/>
<path d="M215 264V265H216V264H215ZM165 264H164V265H165V264ZM165 225V224H164V225H165ZM170 225H171V224H170V225ZM170 259H169V260H170V259ZM210 259V260H211V259H210ZM210 225V224H209V225H210ZM215 225H216V224H215V225ZM215 264V263H165V264V265H215V264ZM165 264H166V225H165H164V264H165ZM165 225V226H170V225V224H165V225ZM170 225H169V259H170H171V225H170ZM170 259V260H210V259V258H170V259ZM210 259H211V225H210H209V259H210ZM210 225V226H215V225V224H210V225ZM215 225H214V264H215H216V225H215Z" fill="#1C1B23" mask="url(#path-2-inside-1_85_65)"/>
<mask id="path-4-inside-2_85_65" fill="white">
<path d="M190 116C221.453 116 247.253 140.202 249.794 171H244.775C242.249 142.968 218.69 121 190 121C159.624 121 135 145.624 135 176C135 197.373 147.192 215.897 165 225.001V230.558C144.345 221.078 130 200.215 130 176C130 142.863 156.863 116 190 116Z"/>
</mask>
<path d="M190 116C221.453 116 247.253 140.202 249.794 171H244.775C242.249 142.968 218.69 121 190 121C159.624 121 135 145.624 135 176C135 197.373 147.192 215.897 165 225.001V230.558C144.345 221.078 130 200.215 130 176C130 142.863 156.863 116 190 116Z" fill="#1C1B23"/>
<path d="M249.794 171V172H250.88L250.791 170.918L249.794 171ZM244.775 171L243.779 171.09L243.861 172H244.775V171ZM165 225.001H166V224.389L165.455 224.111L165 225.001ZM165 230.558L164.583 231.466L166 232.117V230.558H165ZM190 116V117C220.929 117 246.299 140.799 248.797 171.082L249.794 171L250.791 170.918C248.207 139.606 221.978 115 190 115V116ZM249.794 171V170H244.775V171V172H249.794V171ZM244.775 171L245.771 170.91C243.199 142.367 219.212 120 190 120V121V122C218.168 122 241.299 143.568 243.779 171.09L244.775 171ZM190 121V120C159.072 120 134 145.072 134 176H135H136C136 146.177 160.177 122 190 122V121ZM135 176H134C134 197.763 146.415 216.624 164.545 225.891L165 225.001L165.455 224.111C147.968 215.171 136 196.983 136 176H135ZM165 225.001H164V230.558H165H166V225.001H165ZM165 230.558L165.417 229.649C145.104 220.326 131 199.81 131 176H130H129C129 200.62 143.586 221.829 164.583 231.466L165 230.558ZM130 176H131C131 143.415 157.415 117 190 117V116V115C156.311 115 129 142.311 129 176H130Z" fill="#1C1B23" mask="url(#path-4-inside-2_85_65)"/>
<rect x="165.5" y="267.5" width="49" height="4" rx="2" fill="#1C1B23" stroke="#1C1B23"/>
<rect x="170.5" y="277.5" width="39" height="4" rx="2" fill="#1C1B23" stroke="#1C1B23"/>
<rect x="175.5" y="287.5" width="29" height="4" rx="2" fill="#1C1B23" stroke="#1C1B23"/>
<rect x="190" y="214" width="28" height="85" fill="#F8FAFF"/>
<path d="M211.352 191.376C213.571 191.461 216.472 191.547 220.056 191.632C223.64 191.717 227.224 191.76 230.808 191.76C234.904 191.76 238.872 191.717 242.712 191.632C246.552 191.547 249.283 191.504 250.904 191.504C261.485 191.504 269.379 193.381 274.584 197.136C279.875 200.891 282.52 205.712 282.52 211.6C282.52 214.587 281.624 217.616 279.832 220.688C278.04 223.76 275.267 226.491 271.512 228.88C267.757 231.269 262.893 233.019 256.92 234.128V234.384C264.941 234.981 271.299 236.432 275.992 238.736C280.685 241.04 284.056 243.813 286.104 247.056C288.152 250.299 289.176 253.669 289.176 257.168C289.176 262.544 287.768 267.067 284.952 270.736C282.136 274.405 278.083 277.221 272.792 279.184C267.501 281.061 261.187 282 253.848 282C251.8 282 248.856 281.957 245.016 281.872C241.176 281.701 236.525 281.616 231.064 281.616C227.309 281.616 223.64 281.659 220.056 281.744C216.472 281.744 213.571 281.829 211.352 282V279.44C214.083 279.269 216.131 278.928 217.496 278.416C218.861 277.904 219.757 276.88 220.184 275.344C220.696 273.808 220.952 271.504 220.952 268.432V204.944C220.952 201.787 220.696 199.483 220.184 198.032C219.757 196.496 218.819 195.472 217.368 194.96C216.003 194.363 213.997 194.021 211.352 193.936V191.376ZM249.24 193.936C245.912 193.936 243.736 194.661 242.712 196.112C241.773 197.563 241.304 200.507 241.304 204.944V268.432C241.304 271.419 241.517 273.68 241.944 275.216C242.456 276.752 243.309 277.776 244.504 278.288C245.784 278.8 247.661 279.056 250.136 279.056C256.28 279.056 260.76 277.136 263.576 273.296C266.477 269.371 267.928 263.824 267.928 256.656C267.928 250.085 266.264 245.008 262.936 241.424C259.693 237.84 254.275 236.048 246.68 236.048H235.8C235.8 236.048 235.8 235.707 235.8 235.024C235.8 234.256 235.8 233.872 235.8 233.872H246.808C250.819 233.872 253.891 232.933 256.024 231.056C258.157 229.093 259.651 226.533 260.504 223.376C261.357 220.133 261.784 216.677 261.784 213.008C261.784 206.693 260.803 201.957 258.84 198.8C256.877 195.557 253.677 193.936 249.24 193.936Z" fill="#4A4A68"/>
<path d="M138.99 305.56L154.542 345.624C155.139 347.16 155.8 348.227 156.526 348.824C157.294 349.379 157.976 349.677 158.574 349.72V351C157.294 350.915 155.779 350.872 154.03 350.872C152.323 350.829 150.595 350.808 148.846 350.808C146.883 350.808 145.027 350.829 143.278 350.872C141.528 350.872 140.142 350.915 139.118 351V349.72C141.294 349.635 142.659 349.272 143.214 348.632C143.811 347.949 143.683 346.52 142.83 344.344L131.95 314.584L133.102 312.92L123.374 338.264C122.435 340.611 121.859 342.531 121.646 344.024C121.475 345.517 121.582 346.669 121.966 347.48C122.392 348.291 123.054 348.867 123.95 349.208C124.888 349.507 125.998 349.677 127.278 349.72V351C125.87 350.915 124.526 350.872 123.246 350.872C121.966 350.829 120.664 350.808 119.342 350.808C118.403 350.808 117.507 350.829 116.654 350.872C115.843 350.872 115.117 350.915 114.477 351V349.72C115.373 349.549 116.291 348.973 117.23 347.992C118.168 347.011 119.086 345.347 119.982 343L134.574 305.56C135.256 305.603 135.982 305.624 136.75 305.624C137.56 305.624 138.307 305.603 138.99 305.56ZM143.47 332.568V333.848H124.398L125.038 332.568H143.47ZM176.301 317.016C177.965 317.016 179.48 317.208 180.845 317.592C182.253 317.933 183.405 318.381 184.301 318.936C185.41 319.619 186.264 320.472 186.861 321.496C187.501 322.477 187.821 323.629 187.821 324.952C187.821 326.445 187.352 327.683 186.413 328.664C185.474 329.603 184.258 330.072 182.765 330.072C181.272 330.072 180.077 329.645 179.181 328.792C178.285 327.939 177.837 326.787 177.837 325.336C177.837 323.971 178.264 322.84 179.117 321.944C179.97 321.005 180.952 320.387 182.061 320.088C181.72 319.661 181.208 319.299 180.525 319C179.842 318.701 179.074 318.552 178.221 318.552C176.898 318.552 175.725 318.936 174.701 319.704C173.72 320.472 172.888 321.539 172.205 322.904C171.522 324.269 170.989 325.869 170.605 327.704C170.264 329.539 170.093 331.544 170.093 333.72C170.093 337.005 170.498 339.587 171.309 341.464C172.162 343.341 173.229 344.664 174.509 345.432C175.832 346.2 177.197 346.584 178.605 346.584C179.416 346.584 180.29 346.456 181.229 346.2C182.21 345.944 183.192 345.432 184.173 344.664C185.197 343.896 186.136 342.808 186.989 341.4L188.077 341.784C187.608 343.363 186.84 344.941 185.773 346.52C184.706 348.099 183.32 349.4 181.613 350.424C179.906 351.405 177.816 351.896 175.341 351.896C172.568 351.896 170.05 351.299 167.789 350.104C165.57 348.867 163.778 346.989 162.413 344.472C161.09 341.912 160.429 338.627 160.429 334.616C160.429 330.776 161.112 327.555 162.477 324.952C163.885 322.307 165.784 320.323 168.173 319C170.562 317.677 173.272 317.016 176.301 317.016ZM200.243 351.448C198.323 351.448 196.723 351.085 195.443 350.36C194.163 349.635 193.224 348.675 192.627 347.48C192.03 346.243 191.731 344.899 191.731 343.448C191.731 341.613 192.136 340.12 192.947 338.968C193.8 337.816 194.888 336.877 196.211 336.152C197.534 335.427 198.92 334.829 200.371 334.36C201.864 333.891 203.272 333.443 204.595 333.016C205.96 332.547 207.048 332.013 207.859 331.416C208.712 330.776 209.139 329.965 209.139 328.984V323.992C209.139 322.883 208.947 321.901 208.563 321.048C208.222 320.152 207.667 319.469 206.899 319C206.174 318.531 205.214 318.296 204.019 318.296C203.166 318.296 202.312 318.424 201.459 318.68C200.606 318.893 199.902 319.277 199.347 319.832C200.542 320.259 201.459 320.92 202.099 321.816C202.782 322.669 203.123 323.651 203.123 324.76C203.123 326.211 202.611 327.363 201.587 328.216C200.606 329.069 199.432 329.496 198.067 329.496C196.531 329.496 195.358 329.027 194.547 328.088C193.779 327.107 193.395 325.933 193.395 324.568C193.395 323.331 193.694 322.307 194.291 321.496C194.931 320.685 195.806 319.917 196.915 319.192C198.11 318.509 199.539 317.976 201.203 317.592C202.91 317.208 204.744 317.016 206.707 317.016C208.67 317.016 210.44 317.229 212.019 317.656C213.598 318.04 214.92 318.765 215.987 319.832C216.968 320.813 217.608 322.029 217.907 323.48C218.206 324.888 218.355 326.68 218.355 328.856V346.264C218.355 347.331 218.462 348.077 218.675 348.504C218.888 348.888 219.251 349.08 219.763 349.08C220.147 349.08 220.51 348.973 220.851 348.76C221.235 348.547 221.64 348.291 222.067 347.992L222.707 349.08C221.811 349.848 220.766 350.445 219.571 350.872C218.419 351.256 217.118 351.448 215.667 351.448C214.088 351.448 212.83 351.235 211.891 350.808C210.952 350.339 210.27 349.72 209.843 348.952C209.459 348.184 209.267 347.288 209.267 346.264C208.243 347.885 207.006 349.165 205.555 350.104C204.104 351 202.334 351.448 200.243 351.448ZM204.787 347.352C205.64 347.352 206.408 347.16 207.091 346.776C207.816 346.349 208.499 345.667 209.139 344.728V331.608C208.755 332.248 208.222 332.824 207.539 333.336C206.856 333.848 206.131 334.381 205.363 334.936C204.595 335.448 203.848 336.024 203.123 336.664C202.44 337.304 201.886 338.093 201.459 339.032C201.032 339.971 200.819 341.101 200.819 342.424C200.819 344.088 201.182 345.325 201.907 346.136C202.632 346.947 203.592 347.352 204.787 347.352ZM256.024 300.888V343.96C256.024 345.88 256.323 347.309 256.92 348.248C257.517 349.144 258.584 349.592 260.12 349.592V350.936C258.797 350.808 257.475 350.744 256.152 350.744C254.36 350.744 252.675 350.808 251.096 350.936C249.56 351.064 248.131 351.299 246.808 351.64V308.568C246.808 306.648 246.509 305.24 245.912 304.344C245.357 303.405 244.291 302.936 242.712 302.936V301.592C244.077 301.72 245.4 301.784 246.68 301.784C248.429 301.784 250.093 301.72 251.672 301.592C253.251 301.421 254.701 301.187 256.024 300.888ZM239.704 317.016C241.581 317.016 243.224 317.336 244.632 317.976C246.083 318.573 247.213 319.597 248.024 321.048L247.256 321.752C246.701 320.728 245.955 320.003 245.016 319.576C244.12 319.107 243.16 318.872 242.136 318.872C239.96 318.872 238.232 320.152 236.952 322.712C235.672 325.229 235.053 329.133 235.096 334.424C235.096 338.051 235.331 340.952 235.8 343.128C236.312 345.261 237.016 346.797 237.912 347.736C238.851 348.675 239.917 349.144 241.112 349.144C242.563 349.144 243.864 348.568 245.016 347.416C246.168 346.264 246.787 344.707 246.872 342.744L247.192 344.984C246.552 347.245 245.507 348.973 244.056 350.168C242.648 351.32 240.792 351.896 238.488 351.896C235.971 351.896 233.709 351.277 231.704 350.04C229.741 348.803 228.205 346.904 227.096 344.344C225.987 341.741 225.432 338.392 225.432 334.296C225.432 330.413 226.051 327.213 227.288 324.696C228.525 322.136 230.211 320.216 232.344 318.936C234.52 317.656 236.973 317.016 239.704 317.016ZM279.298 317.016C283.053 317.016 285.997 318.125 288.13 320.344C290.263 322.563 291.33 326.189 291.33 331.224H270.274L270.146 330.008H283.266C283.309 327.917 283.181 325.997 282.882 324.248C282.583 322.456 282.114 321.027 281.474 319.96C280.834 318.893 279.981 318.36 278.914 318.36C277.421 318.36 276.141 319.299 275.074 321.176C274.05 323.053 273.431 326.168 273.218 330.52L273.41 330.904C273.367 331.416 273.325 331.949 273.282 332.504C273.282 333.059 273.282 333.635 273.282 334.232C273.282 337.176 273.687 339.565 274.498 341.4C275.351 343.235 276.418 344.579 277.698 345.432C278.978 346.243 280.279 346.648 281.602 346.648C282.498 346.648 283.415 346.52 284.354 346.264C285.335 345.965 286.317 345.453 287.298 344.728C288.279 343.96 289.197 342.893 290.05 341.528L291.202 341.912C290.69 343.533 289.879 345.112 288.77 346.648C287.661 348.184 286.253 349.443 284.546 350.424C282.839 351.405 280.791 351.896 278.402 351.896C275.501 351.896 272.941 351.277 270.722 350.04C268.503 348.803 266.754 346.925 265.474 344.408C264.237 341.891 263.618 338.691 263.618 334.808C263.618 330.84 264.279 327.533 265.602 324.888C266.967 322.243 268.823 320.28 271.17 319C273.559 317.677 276.269 317.016 279.298 317.016ZM317.893 317.016C319.685 317.016 321.136 317.251 322.245 317.72C323.354 318.147 324.25 318.744 324.933 319.512C325.616 320.323 326.106 321.389 326.405 322.712C326.704 323.992 326.853 325.699 326.853 327.832V345.048C326.853 346.84 327.13 348.056 327.685 348.696C328.24 349.336 329.2 349.656 330.565 349.656V351C329.797 350.957 328.624 350.915 327.045 350.872C325.509 350.787 323.994 350.744 322.501 350.744C320.965 350.744 319.45 350.787 317.957 350.872C316.464 350.915 315.333 350.957 314.565 351V349.656C315.717 349.656 316.506 349.336 316.933 348.696C317.402 348.056 317.637 346.84 317.637 345.048V325.144C317.637 324.077 317.552 323.16 317.381 322.392C317.21 321.581 316.869 320.963 316.357 320.536C315.888 320.067 315.162 319.832 314.181 319.832C313.072 319.832 312.048 320.152 311.109 320.792C310.17 321.432 309.402 322.328 308.805 323.48C308.25 324.589 307.973 325.848 307.973 327.256V345.048C307.973 346.84 308.208 348.056 308.677 348.696C309.146 349.336 309.936 349.656 311.045 349.656V351C310.362 350.957 309.296 350.915 307.845 350.872C306.437 350.787 304.986 350.744 303.493 350.744C301.872 350.744 300.208 350.787 298.501 350.872C296.794 350.915 295.514 350.957 294.661 351V349.656C296.154 349.656 297.2 349.336 297.797 348.696C298.437 348.056 298.757 346.84 298.757 345.048V324.888C298.757 322.968 298.458 321.56 297.861 320.664C297.306 319.725 296.24 319.256 294.661 319.256V317.912C296.026 318.04 297.349 318.104 298.629 318.104C300.421 318.104 302.085 318.04 303.621 317.912C305.2 317.741 306.65 317.507 307.973 317.208V322.968C308.997 320.835 310.384 319.32 312.133 318.424C313.882 317.485 315.802 317.016 317.893 317.016ZM337.157 317.016C338.949 317.016 340.4 317.251 341.509 317.72C342.618 318.147 343.514 318.744 344.197 319.512C344.88 320.323 345.37 321.389 345.669 322.712C345.968 323.992 346.117 325.699 346.117 327.832V345.048C346.117 346.84 346.416 348.056 347.013 348.696C347.653 349.336 348.72 349.656 350.213 349.656V351C349.402 350.957 348.186 350.915 346.565 350.872C344.944 350.787 343.344 350.744 341.765 350.744C340.229 350.744 338.714 350.787 337.221 350.872C335.728 350.915 334.597 350.957 333.829 351V349.656C334.981 349.656 335.77 349.336 336.197 348.696C336.666 348.056 336.901 346.84 336.901 345.048V325.144C336.901 324.077 336.794 323.16 336.581 322.392C336.41 321.581 336.048 320.963 335.493 320.536C334.981 320.067 334.17 319.832 333.061 319.832C331.952 319.832 330.928 320.173 329.989 320.856C329.05 321.539 328.282 322.456 327.685 323.608C327.13 324.76 326.832 326.04 326.789 327.448L326.469 323.544C327.621 320.984 329.136 319.256 331.013 318.36C332.933 317.464 334.981 317.016 337.157 317.016ZM383.207 317.912V319.192C382.396 319.405 381.628 319.917 380.903 320.728C380.178 321.496 379.474 322.819 378.791 324.696L369.767 350.04L367.399 354.52L353.447 322.84C352.722 321.176 351.996 320.173 351.271 319.832C350.588 319.448 349.991 319.256 349.479 319.256V317.912C350.887 318.04 352.338 318.147 353.831 318.232C355.367 318.275 356.839 318.296 358.247 318.296C359.996 318.296 361.596 318.253 363.047 318.168C364.498 318.083 365.863 317.997 367.143 317.912V319.256C366.29 319.256 365.479 319.32 364.711 319.448C363.986 319.533 363.474 319.832 363.175 320.344C362.919 320.813 363.047 321.645 363.559 322.84L371.623 342.296L371.047 342.68L375.783 329.432C376.594 327.128 376.935 325.251 376.807 323.8C376.679 322.307 376.21 321.197 375.399 320.472C374.588 319.704 373.479 319.277 372.071 319.192V317.912C372.754 317.955 373.458 317.997 374.183 318.04C374.908 318.04 375.634 318.061 376.359 318.104C377.084 318.104 377.724 318.104 378.279 318.104C379.132 318.104 380.028 318.083 380.967 318.04C381.906 317.997 382.652 317.955 383.207 317.912ZM369.767 350.04L367.335 356.888C366.908 357.955 366.46 358.851 365.991 359.576C365.564 360.344 365.074 360.963 364.519 361.432C363.922 361.944 363.154 362.328 362.215 362.584C361.276 362.883 360.188 363.032 358.951 363.032C357.927 363.032 356.86 362.861 355.751 362.52C354.684 362.179 353.788 361.624 353.063 360.856C352.338 360.088 351.975 359.107 351.975 357.912C351.975 356.589 352.444 355.523 353.383 354.712C354.322 353.944 355.559 353.56 357.095 353.56C358.503 353.56 359.655 353.901 360.551 354.584C361.447 355.267 361.895 356.269 361.895 357.592C361.895 358.445 361.618 359.256 361.063 360.024C360.551 360.792 359.762 361.368 358.695 361.752C358.908 361.795 359.164 361.816 359.463 361.816C359.762 361.816 359.996 361.816 360.167 361.816C361.447 361.816 362.578 361.411 363.559 360.6C364.54 359.789 365.351 358.509 365.991 356.76L368.231 350.168L369.767 350.04Z" fill="#4A4A68"/>
</svg>
